<svg xmlns="http://www.w3.org/2000/svg" width="16" height="16" viewBox="0 0 16 16">
  <g id="pano-menu-yjzx" transform="translate(-28 0.128)">
    <rect id="矩形_54" data-name="矩形 54" width="16" height="16" transform="translate(28 -0.128)" fill="none"/>
    <path id="联合_8" data-name="联合 8" d="M3266.657,482.674a.657.657,0,0,1,0-1.314H3279a.657.657,0,0,1,0,1.314Zm.646-2.556a1.215,1.215,0,0,1-1.215-1.214v-5.245a6.787,6.787,0,0,1,13.573-.1h0V478.9a1.215,1.215,0,0,1-1.214,1.214Zm1.7-10.328a5.293,5.293,0,0,0-1.6,3.869V478.8h10.944v-5.145a5.472,5.472,0,0,0-9.341-3.869Zm4.52,5.449-1.765-1.765L3270,475.238a.657.657,0,0,1-.93,0,.659.659,0,0,1,0-.93l2.229-2.228a.657.657,0,0,1,.93,0l1.763,1.765,1.764-1.764a.657.657,0,0,1,.931.929l-2.229,2.229a.656.656,0,0,1-.929,0Z" transform="translate(-3236.831 -466.901)" fill="#718096"/>
  </g>
</svg>
