<svg xmlns="http://www.w3.org/2000/svg" width="16.007" height="16" viewBox="0 0 16.007 16">
  <g id="pano-tupian" transform="translate(-110 -264)">
    <rect id="矩形_495" data-name="矩形 495" width="16" height="16" transform="translate(110 264)" fill="none"/>
    <g id="组_685" data-name="组 685" transform="translate(-78)">
      <path id="矩形_482" data-name="矩形 482" d="M2,1A1,1,0,0,0,1,2V14a1,1,0,0,0,1,1H14a1,1,0,0,0,1-1V2a1,1,0,0,0-1-1H2M2,0H14a2,2,0,0,1,2,2V14a2,2,0,0,1-2,2H2a2,2,0,0,1-2-2V2A2,2,0,0,1,2,0Z" transform="translate(188 264)" fill="#202020"/>
      <path id="路径_345" data-name="路径 345" d="M6354.128,1951.387a.85.85,0,0,1-.088,0,3.381,3.381,0,0,1-1.592-1.07,8.16,8.16,0,0,0-1.64-1.283,1.982,1.982,0,0,0-1.945.2l-.027.02-.029.016-3.147,1.748-.485-.874,3.123-1.735a2.972,2.972,0,0,1,2.967-.261,8.885,8.885,0,0,1,1.862,1.439,4.855,4.855,0,0,0,1.007.806,4.434,4.434,0,0,0,.785-.4,5.212,5.212,0,0,1,3.683-.963c2.2.52,2.4,1.911,2.406,1.969l-.992.124s0,0,0,.014c-.006-.032-.164-.784-1.646-1.135a4.378,4.378,0,0,0-2.954.857A2.948,2.948,0,0,1,6354.128,1951.387Z" transform="translate(-6157 -1676.347)" fill="#202020"/>
      <path id="椭圆_23" data-name="椭圆 23" d="M2,1A1,1,0,1,0,3,2,1,1,0,0,0,2,1M2,0A2,2,0,1,1,0,2,2,2,0,0,1,2,0Z" transform="translate(196 267)" fill="#202020"/>
    </g>
  </g>
</svg>
