<svg xmlns="http://www.w3.org/2000/svg" width="16" height="16" viewBox="0 0 16 16">
  <g id="pano-menu_jcsj" transform="translate(-28 0.128)">
    <rect id="矩形_54" data-name="矩形 54" width="16" height="16" transform="translate(28 -0.128)" fill="none"/>
    <g id="组_632" data-name="组 632" transform="translate(28.5 0.372)">
      <path id="menu_sjbg" d="M-4231.393,3079.2h-13.5a.592.592,0,0,1-.592-.591.593.593,0,0,1,.592-.593h13.5a.589.589,0,0,1,.418.173.588.588,0,0,1,.173.418A.594.594,0,0,1-4231.393,3079.2Zm-1.914-2.591h-9.666a2.52,2.52,0,0,1-2.517-2.511l-.011-7.085a2.519,2.519,0,0,1,2.517-2.511h9.665a2.521,2.521,0,0,1,2.518,2.511l.011,7.085A2.52,2.52,0,0,1-4233.307,3076.608Zm-9.67-10.957h-.15v.009a1.359,1.359,0,0,0-1.215,1.351l.012,7.085a1.364,1.364,0,0,0,1.364,1.36h9.653a1.363,1.363,0,0,0,1.364-1.36l-.011-7.087a1.364,1.364,0,0,0-1.365-1.359Z" transform="translate(4245.65 -3064.35)" fill="#718096"/>
    </g>
    <g id="组_1541" data-name="组 1541" transform="translate(14 6.5)">
      <path id="直线_59" data-name="直线 59" d="M0,4.007a.65.65,0,0,1-.65-.65V0A.65.65,0,0,1,0-.65.65.65,0,0,1,.65,0V3.357A.65.65,0,0,1,0,4.007Z" transform="translate(18.805 -0.434)" fill="#718096"/>
      <path id="直线_60" data-name="直线 60" d="M0,4.007a.65.65,0,0,1-.65-.65V0A.65.65,0,0,1,0-.65.65.65,0,0,1,.65,0V3.357A.65.65,0,0,1,0,4.007Z" transform="translate(25.473 -0.434)" fill="#718096"/>
      <path id="直线_61" data-name="直线 61" d="M0,6.2a.65.65,0,0,1-.65-.65V0A.65.65,0,0,1,0-.65.65.65,0,0,1,.65,0v5.55A.65.65,0,0,1,0,6.2Z" transform="translate(22.139 -2.628)" fill="#718096"/>
    </g>
  </g>
</svg>
