<svg xmlns="http://www.w3.org/2000/svg" width="16" height="16" viewBox="0 0 16 16">
  <g id="pano-menu_xtgl" transform="translate(-28 0.128)">
    <rect id="矩形_54" data-name="矩形 54" width="16" height="16" transform="translate(28 -0.128)" fill="none"/>
    <path id="路径_328" data-name="路径 328" d="M77.46,3.414c-.026-.026-.06-.042-.086-.069l-6.3-3.573a.528.528,0,0,0-.505,0L64.257,3.334A.532.532,0,0,0,64,3.779v7.145a.514.514,0,0,0,.257.445l6.315,3.722a.473.473,0,0,0,.266.069h.051a.522.522,0,0,0,.257-.069l6.306-3.722a.532.532,0,0,0,.257-.445V3.85A.551.551,0,0,0,77.46,3.414ZM70.82.624,76.33,3.748,70.846,6.863,65.327,3.714ZM64.856,4.569l5.562,3.175v.1l-.051,6.135L64.856,10.73Zm6.477,9.413-.051-6.135V7.624l5.562-3.08v6.2Z" transform="translate(-34.86 0.438)" fill="#718096"/>
    <path id="路径_328_-_轮廓" data-name="路径 328 - 轮廓" d="M70.824-.442a.68.68,0,0,1,.324.083l6.318,3.584.014.014.024.018a.525.525,0,0,1,.05.039.7.7,0,0,1,.3.547v7.08a.68.68,0,0,1-.329.574l-6.308,3.723a.676.676,0,0,1-.333.089H70.84a.623.623,0,0,1-.346-.09L64.181,11.5a.665.665,0,0,1-.331-.574V3.779a.68.68,0,0,1,.329-.574L70.5-.358A.682.682,0,0,1,70.824-.442Zm6.461,3.909L71-.1a.387.387,0,0,0-.359,0l-6.313,3.56a.378.378,0,0,0-.181.317v7.142a.365.365,0,0,0,.182.315l6.316,3.723a.325.325,0,0,0,.183.048h.057a.373.373,0,0,0,.183-.049l6.3-3.721a.379.379,0,0,0,.183-.319V3.854a.4.4,0,0,0-.18-.315l-.013-.008-.011-.011L77.33,3.5A.562.562,0,0,1,77.285,3.467ZM70.82.452l5.814,3.3L70.846,7.036,65.022,3.713Zm5.206,3.3L70.82.8,65.631,3.715,70.846,6.69Zm.967.541v6.536l-5.808,3.418-.053-6.707Zm-.3,6.364V4.8L71.431,7.712v.134l.049,5.874ZM64.706,4.31l5.862,3.346v.189l-.053,6.4-5.808-3.427Zm5.562,3.52-5.262-3v5.817l5.213,3.075Z" transform="translate(-34.86 0.438)" fill="#718096"/>
  </g>
</svg>
