<svg xmlns="http://www.w3.org/2000/svg" width="16" height="16" viewBox="0 0 16 16">
  <g id="pano-chexiao" transform="translate(15 5)">
    <g id="组_703" data-name="组 703" transform="translate(1 2)">
      <path id="路径_347" data-name="路径 347" d="M11.767,10H7.8a.5.5,0,0,1,0-1h3.963A3.838,3.838,0,0,0,15.41,5a3.838,3.838,0,0,0-3.643-4H1.91a.5.5,0,0,1,0-1h9.857A4.837,4.837,0,0,1,16.41,5,4.837,4.837,0,0,1,11.767,10Z" transform="translate(-16.91 -2.5)" fill="#1a1311"/>
      <path id="路径_348" data-name="路径 348" d="M4.5,6.888a.5.5,0,0,1-.294-.1L.277,3.928a.664.664,0,0,1,0-1.079L4.205-.016a.5.5,0,0,1,.589.808l-3.56,2.6,3.56,2.6a.5.5,0,0,1-.3.9Z" transform="translate(-15.5 -5.388)" fill="#1a1311"/>
    </g>
    <rect id="矩形_490" data-name="矩形 490" width="16" height="16" transform="translate(-15 -5)" fill="none"/>
  </g>
</svg>
