<svg xmlns="http://www.w3.org/2000/svg" width="16" height="16.104" viewBox="0 0 16 16.104">
  <g id="pano-menu-sazx" transform="translate(-28 0.232)">
    <rect id="矩形_54" data-name="矩形 54" width="16" height="16" transform="translate(28 -0.128)" fill="none"/>
    <path id="联合_3" data-name="联合 3" d="M3325.163,658.673a.7.7,0,0,1-.305-.069c-.675-.327-6.6-3.268-6.6-5.986v-7.2a.653.653,0,0,1,.669-.627,10.411,10.411,0,0,0,5.8-1.964.7.7,0,0,1,.445-.157.707.707,0,0,1,.415.134,12.427,12.427,0,0,0,5.867,1.989.646.646,0,0,1,.635.627v7.194c0,1.319-1.146,2.741-3.406,4.226a25.016,25.016,0,0,1-3.219,1.777.717.717,0,0,1-.271.054Zm-5.563-12.659v6.6c0,1.406,3.317,3.584,5.578,4.724,2.087-.983,5.555-3.057,5.555-4.724V645.99a13.783,13.783,0,0,1-5.542-1.9A11.7,11.7,0,0,1,3319.6,646.015Zm4.169,7.15-1.926-1.959a.638.638,0,0,1,.251-1.131.614.614,0,0,1,.134-.014.638.638,0,0,1,.508.252l1.511,1.5,3.624-3.622a.635.635,0,0,1,.895.9l-4.1,4.075a.64.64,0,0,1-.891,0Z" transform="translate(-3289.171 -642.905)" fill="#718096"/>
  </g>
</svg>
