<svg xmlns="http://www.w3.org/2000/svg" width="16" height="16" viewBox="0 0 16 16">
  <g id="pano-menu-rwzx" transform="translate(0 0.096)">
    <rect id="矩形_54" data-name="矩形 54" width="16" height="16" transform="translate(0 -0.096)" fill="none"/>
    <g id="图标" transform="translate(0.5 0.403)">
      <path id="矩形_235" data-name="矩形 235" d="M3,1.2A1.8,1.8,0,0,0,1.2,3v9A1.8,1.8,0,0,0,3,13.8h9A1.8,1.8,0,0,0,13.8,12V3A1.8,1.8,0,0,0,12,1.2H3M3,0h9a3,3,0,0,1,3,3v9a3,3,0,0,1-3,3H3a3,3,0,0,1-3-3V3A3,3,0,0,1,3,0Z" transform="translate(0 0)" fill="#718096"/>
    </g>
    <path id="联合_30" data-name="联合 30" d="M17017.27-3981.155a1.926,1.926,0,0,1,1.922-1.923,1.927,1.927,0,0,1,1.928,1.923,1.928,1.928,0,0,1-1.928,1.927A1.926,1.926,0,0,1,17017.27-3981.155Zm1.227-.286a.76.76,0,0,0,.277.914.764.764,0,0,0,.418.128.761.761,0,0,0,.535-.222.757.757,0,0,0,.221-.534.755.755,0,0,0-.605-.739.893.893,0,0,0-.15-.013A.75.75,0,0,0,17018.5-3981.441Zm4.494.872a.587.587,0,0,1-.586-.585.59.59,0,0,1,.586-.585h3.5a.59.59,0,0,1,.586.585.587.587,0,0,1-.586.585Zm-4.748-3.384-1.072-1.073a.59.59,0,0,1,0-.829.589.589,0,0,1,.416-.171.581.581,0,0,1,.414.171l.658.658,1.73-1.726a.575.575,0,0,1,.414-.175.579.579,0,0,1,.41.175.568.568,0,0,1,.172.41.578.578,0,0,1-.172.415l-2.141,2.145a.587.587,0,0,1-.414.171A.582.582,0,0,1,17018.242-3983.954Zm4.748-.9a.59.59,0,0,1-.586-.585.587.587,0,0,1,.586-.585h3.5a.587.587,0,0,1,.586.585.59.59,0,0,1-.586.585Z" transform="translate(-17014.004 3991.202)" fill="#718096"/>
  </g>
</svg>
