<svg xmlns="http://www.w3.org/2000/svg" width="20" height="20" viewBox="0 0 20 20">
  <g id="pano-shuipingfenbu" transform="translate(448 161) rotate(180)">
    <g id="组_691" data-name="组 691" transform="translate(40 10.5)">
      <rect id="矩形_487" data-name="矩形 487" width="6" height="14" rx="1" transform="translate(395 133)" fill="#797979"/>
      <path id="直线_69" data-name="直线 69" d="M0,16.5A.5.5,0,0,1-.5,16V0A.5.5,0,0,1,0-.5.5.5,0,0,1,.5,0V16A.5.5,0,0,1,0,16.5Z" transform="translate(405.5 132.5)" fill="#797979"/>
      <path id="直线_70" data-name="直线 70" d="M0,16.5A.5.5,0,0,1-.5,16V0A.5.5,0,0,1,0-.5.5.5,0,0,1,.5,0V16A.5.5,0,0,1,0,16.5Z" transform="translate(390.5 132.5)" fill="#797979"/>
    </g>
    <rect id="矩形_489" data-name="矩形 489" width="20" height="20" transform="translate(428 141)" fill="none"/>
  </g>
</svg>
