<svg xmlns="http://www.w3.org/2000/svg" width="16" height="16" viewBox="0 0 16 16">
  <g id="pano-menu-wlsb" transform="translate(-28 0.128)">
    <rect id="矩形_54" data-name="矩形 54" width="16" height="16" transform="translate(28 -0.128)" fill="none"/>
    <path id="联合_7" data-name="联合 7" d="M3268,393.072a2,2,0,0,1-2-2v-10.2a2,2,0,0,1,2-2h11a2,2,0,0,1,2,2v10.2a2,2,0,0,1-2,2Zm-.8-2a.8.8,0,0,0,.8.8h11a.8.8,0,0,0,.8-.8v-4.451h-12.6Zm12.6-5.75v-4.451a.8.8,0,0,0-.8-.8h-11a.8.8,0,0,0-.8.8v4.451Zm-4.676,4.552a.679.679,0,0,1,0-1.358h2.616a.679.679,0,0,1,0,1.358Zm0-6.582a.679.679,0,0,1,0-1.358h2.616a.679.679,0,0,1,0,1.358Z" transform="translate(-3237.5 -378.09)" fill="#718096"/>
  </g>
</svg>
