<svg xmlns="http://www.w3.org/2000/svg" width="16" height="16" viewBox="0 0 16 16">
  <g id="pano-menu-bbgl" transform="translate(-28 0.128)">
    <rect id="矩形_54" data-name="矩形 54" width="16" height="16" transform="translate(28 -0.128)" fill="none"/>
    <path id="联合_6" data-name="联合 6" d="M3290,289.072a2,2,0,0,1-2-2v-10.2a2,2,0,0,1,2-2h11a2,2,0,0,1,2,2v10.2a2,2,0,0,1-2,2Zm-.8-2a.8.8,0,0,0,.8.8h11a.8.8,0,0,0,.8-.8V279.24h-12.6Zm12.6-9.132v-1.067a.8.8,0,0,0-.8-.8h-11a.8.8,0,0,0-.8.8v1.067Zm-7.328,7.734a.6.6,0,0,1-.308-.791l1.528-3.471a.6.6,0,0,1,1.1.483l-1.528,3.471a.6.6,0,0,1-.549.359A.586.586,0,0,1,3294.473,285.673Zm3.47-.229a.6.6,0,0,1,.018-.849l1.273-1.219-1.282-1.283a.6.6,0,0,1,.849-.849l1.716,1.717a.6.6,0,0,1-.009.858l-1.717,1.643a.6.6,0,0,1-.848-.019Zm-5.7.019-1.717-1.643a.6.6,0,0,1-.009-.858l1.716-1.717a.6.6,0,0,1,.849.849l-1.283,1.283,1.274,1.219a.6.6,0,1,1-.83.868Z" transform="translate(-3259.505 -274.1)" fill="#718096"/>
  </g>
</svg>
