<svg xmlns="http://www.w3.org/2000/svg" width="16" height="16" viewBox="0 0 16 16">
  <g id="pano-huifu" transform="translate(15 5)">
    <g id="组_703" data-name="组 703" transform="translate(-14 -3)">
      <path id="路径_347" data-name="路径 347" d="M10.015,10H6.053A4.837,4.837,0,0,1,1.41,5,4.837,4.837,0,0,1,6.053,0H15.91a.5.5,0,0,1,0,1H6.053A3.838,3.838,0,0,0,2.41,5,3.838,3.838,0,0,0,6.053,9h3.963a.5.5,0,0,1,0,1Z" transform="translate(-1.91 2.5)" fill="#1a1311"/>
      <path id="路径_348" data-name="路径 348" d="M.5,6.888a.5.5,0,0,1-.3-.9l3.56-2.6L.205.792A.5.5,0,0,1,.794-.016L4.723,2.848a.664.664,0,0,1,0,1.079L.794,6.792A.5.5,0,0,1,.5,6.888Z" transform="translate(9.5 -0.388)" fill="#1a1311"/>
    </g>
    <rect id="矩形_490" data-name="矩形 490" width="16" height="16" transform="translate(-15 -5)" fill="none"/>
  </g>
</svg>
